<mxfile host="app.diagrams.net" modified="2021-05-19T20:23:01.088Z" agent="5.0 (Windows)" etag="P3yV3ZTkLHtfF4lGIw10" version="14.6.13" type="github">
  <diagram id="C5RBs43oDa-KdzZeNtuy" name="Page-1">
    <mxGraphModel dx="573" dy="390" grid="1" gridSize="10" guides="1" tooltips="1" connect="1" arrows="1" fold="1" page="1" pageScale="1" pageWidth="827" pageHeight="1169" math="0" shadow="0">
      <root>
        <mxCell id="WIyWlLk6GJQsqaUBKTNV-0" />
        <mxCell id="WIyWlLk6GJQsqaUBKTNV-1" parent="WIyWlLk6GJQsqaUBKTNV-0" />
        <mxCell id="aHtEY9Er_RNSoCQWQcDM-115" style="edgeStyle=orthogonalEdgeStyle;rounded=0;orthogonalLoop=1;jettySize=auto;html=1;exitX=0.5;exitY=1;exitDx=0;exitDy=0;entryX=0.5;entryY=0;entryDx=0;entryDy=0;entryPerimeter=0;" edge="1" parent="WIyWlLk6GJQsqaUBKTNV-1" source="aHtEY9Er_RNSoCQWQcDM-79" target="aHtEY9Er_RNSoCQWQcDM-111">
          <mxGeometry relative="1" as="geometry">
            <Array as="points">
              <mxPoint x="450" y="1210" />
              <mxPoint x="100" y="1210" />
            </Array>
          </mxGeometry>
        </mxCell>
        <mxCell id="aHtEY9Er_RNSoCQWQcDM-102" style="edgeStyle=orthogonalEdgeStyle;rounded=0;orthogonalLoop=1;jettySize=auto;html=1;exitX=0.5;exitY=1;exitDx=0;exitDy=0;entryX=1;entryY=0.5;entryDx=0;entryDy=0;entryPerimeter=0;" edge="1" parent="WIyWlLk6GJQsqaUBKTNV-1" source="aHtEY9Er_RNSoCQWQcDM-77" target="aHtEY9Er_RNSoCQWQcDM-95">
          <mxGeometry relative="1" as="geometry">
            <Array as="points">
              <mxPoint x="500" y="755" />
              <mxPoint x="500" y="895" />
            </Array>
          </mxGeometry>
        </mxCell>
        <mxCell id="WIyWlLk6GJQsqaUBKTNV-2" value="" style="rounded=0;html=1;jettySize=auto;orthogonalLoop=1;fontSize=11;endArrow=classic;labelBackgroundColor=#ffffff;edgeStyle=orthogonalEdgeStyle;entryX=0.5;entryY=0;entryDx=0;entryDy=0;" parent="WIyWlLk6GJQsqaUBKTNV-1" source="WIyWlLk6GJQsqaUBKTNV-3" target="WIyWlLk6GJQsqaUBKTNV-7" edge="1">
          <mxGeometry relative="1" as="geometry">
            <mxPoint x="100" y="140" as="targetPoint" />
          </mxGeometry>
        </mxCell>
        <mxCell id="WIyWlLk6GJQsqaUBKTNV-3" value="Enter connection info to config.py" style="rounded=1;whiteSpace=wrap;html=1;fontSize=12;glass=0;strokeWidth=1;shadow=0;" parent="WIyWlLk6GJQsqaUBKTNV-1" vertex="1">
          <mxGeometry x="40" y="50" width="120" height="40" as="geometry" />
        </mxCell>
        <mxCell id="WIyWlLk6GJQsqaUBKTNV-7" value="Invoke class in main.py" style="rounded=1;whiteSpace=wrap;html=1;fontSize=12;glass=0;strokeWidth=1;shadow=0;" parent="WIyWlLk6GJQsqaUBKTNV-1" vertex="1">
          <mxGeometry x="40" y="140" width="120" height="40" as="geometry" />
        </mxCell>
        <mxCell id="aHtEY9Er_RNSoCQWQcDM-4" value="dtc = sanelib.dtc" style="strokeWidth=2;html=1;shape=mxgraph.flowchart.annotation_2;align=left;labelPosition=right;pointerEvents=1;" vertex="1" parent="WIyWlLk6GJQsqaUBKTNV-1">
          <mxGeometry x="160" y="150" width="60" height="20" as="geometry" />
        </mxCell>
        <mxCell id="aHtEY9Er_RNSoCQWQcDM-9" value="DB_TYPE = &quot;MYSQL&quot;&lt;br&gt;DB_PATH = &quot;DB_PATH&quot;&lt;br&gt;DB_HOST = &quot;localhost&quot;&lt;br&gt;DB_USER = &quot;root&quot;&lt;br&gt;DB_PW = &quot;admin&quot;&lt;br&gt;DB_NAME = &quot;dbml&quot;&lt;br&gt;DB_PORT = &quot;3306&quot;" style="strokeWidth=2;html=1;shape=mxgraph.flowchart.annotation_2;align=left;labelPosition=right;pointerEvents=1;" vertex="1" parent="WIyWlLk6GJQsqaUBKTNV-1">
          <mxGeometry x="160" y="20" width="60" height="100" as="geometry" />
        </mxCell>
        <mxCell id="aHtEY9Er_RNSoCQWQcDM-21" style="edgeStyle=orthogonalEdgeStyle;rounded=0;orthogonalLoop=1;jettySize=auto;html=1;exitX=0.5;exitY=1;exitDx=0;exitDy=0;entryX=0.5;entryY=0;entryDx=0;entryDy=0;entryPerimeter=0;" edge="1" parent="WIyWlLk6GJQsqaUBKTNV-1" source="WIyWlLk6GJQsqaUBKTNV-7" target="aHtEY9Er_RNSoCQWQcDM-20">
          <mxGeometry relative="1" as="geometry">
            <mxPoint x="100" y="250" as="sourcePoint" />
          </mxGeometry>
        </mxCell>
        <mxCell id="aHtEY9Er_RNSoCQWQcDM-52" style="edgeStyle=orthogonalEdgeStyle;rounded=0;orthogonalLoop=1;jettySize=auto;html=1;exitX=0.5;exitY=1;exitDx=0;exitDy=0;entryX=1;entryY=0.5;entryDx=0;entryDy=0;entryPerimeter=0;" edge="1" parent="WIyWlLk6GJQsqaUBKTNV-1" source="aHtEY9Er_RNSoCQWQcDM-17" target="aHtEY9Er_RNSoCQWQcDM-50">
          <mxGeometry relative="1" as="geometry" />
        </mxCell>
        <mxCell id="aHtEY9Er_RNSoCQWQcDM-17" value="train/test split on dataset with encoding" style="rounded=1;whiteSpace=wrap;html=1;fontSize=12;glass=0;strokeWidth=1;shadow=0;" vertex="1" parent="WIyWlLk6GJQsqaUBKTNV-1">
          <mxGeometry x="270" y="460" width="120" height="40" as="geometry" />
        </mxCell>
        <mxCell id="aHtEY9Er_RNSoCQWQcDM-19" value="dtc.train_test_split(encode=True, ratio=0.8)" style="strokeWidth=2;html=1;shape=mxgraph.flowchart.annotation_2;align=left;labelPosition=right;pointerEvents=1;" vertex="1" parent="WIyWlLk6GJQsqaUBKTNV-1">
          <mxGeometry x="390" y="470" width="60" height="20" as="geometry" />
        </mxCell>
        <mxCell id="aHtEY9Er_RNSoCQWQcDM-25" style="edgeStyle=orthogonalEdgeStyle;rounded=0;orthogonalLoop=1;jettySize=auto;html=1;exitX=0.5;exitY=1;exitDx=0;exitDy=0;exitPerimeter=0;" edge="1" parent="WIyWlLk6GJQsqaUBKTNV-1" source="aHtEY9Er_RNSoCQWQcDM-20" target="aHtEY9Er_RNSoCQWQcDM-24">
          <mxGeometry relative="1" as="geometry" />
        </mxCell>
        <mxCell id="aHtEY9Er_RNSoCQWQcDM-26" value="yes" style="edgeLabel;html=1;align=center;verticalAlign=middle;resizable=0;points=[];" vertex="1" connectable="0" parent="aHtEY9Er_RNSoCQWQcDM-25">
          <mxGeometry x="-0.1938" relative="1" as="geometry">
            <mxPoint as="offset" />
          </mxGeometry>
        </mxCell>
        <mxCell id="aHtEY9Er_RNSoCQWQcDM-34" style="edgeStyle=orthogonalEdgeStyle;rounded=0;orthogonalLoop=1;jettySize=auto;html=1;exitX=1;exitY=0.5;exitDx=0;exitDy=0;exitPerimeter=0;" edge="1" parent="WIyWlLk6GJQsqaUBKTNV-1" source="aHtEY9Er_RNSoCQWQcDM-20" target="aHtEY9Er_RNSoCQWQcDM-30">
          <mxGeometry relative="1" as="geometry" />
        </mxCell>
        <mxCell id="aHtEY9Er_RNSoCQWQcDM-35" value="no" style="edgeLabel;html=1;align=center;verticalAlign=middle;resizable=0;points=[];" vertex="1" connectable="0" parent="aHtEY9Er_RNSoCQWQcDM-34">
          <mxGeometry x="-0.2" y="2" relative="1" as="geometry">
            <mxPoint as="offset" />
          </mxGeometry>
        </mxCell>
        <mxCell id="aHtEY9Er_RNSoCQWQcDM-20" value="evaluation / training set available?" style="strokeWidth=1;html=1;shape=mxgraph.flowchart.decision;whiteSpace=wrap;rounded=1;shadow=0;glass=0;" vertex="1" parent="WIyWlLk6GJQsqaUBKTNV-1">
          <mxGeometry x="10" y="210" width="180" height="90" as="geometry" />
        </mxCell>
        <mxCell id="aHtEY9Er_RNSoCQWQcDM-32" style="edgeStyle=orthogonalEdgeStyle;rounded=0;orthogonalLoop=1;jettySize=auto;html=1;exitX=1;exitY=0.5;exitDx=0;exitDy=0;exitPerimeter=0;" edge="1" parent="WIyWlLk6GJQsqaUBKTNV-1" source="aHtEY9Er_RNSoCQWQcDM-24" target="aHtEY9Er_RNSoCQWQcDM-30">
          <mxGeometry relative="1" as="geometry" />
        </mxCell>
        <mxCell id="aHtEY9Er_RNSoCQWQcDM-33" value="no" style="edgeLabel;html=1;align=center;verticalAlign=middle;resizable=0;points=[];" vertex="1" connectable="0" parent="aHtEY9Er_RNSoCQWQcDM-32">
          <mxGeometry x="-0.405" y="1" relative="1" as="geometry">
            <mxPoint as="offset" />
          </mxGeometry>
        </mxCell>
        <mxCell id="aHtEY9Er_RNSoCQWQcDM-39" style="edgeStyle=orthogonalEdgeStyle;rounded=0;orthogonalLoop=1;jettySize=auto;html=1;exitX=0.5;exitY=1;exitDx=0;exitDy=0;exitPerimeter=0;" edge="1" parent="WIyWlLk6GJQsqaUBKTNV-1" source="aHtEY9Er_RNSoCQWQcDM-24" target="aHtEY9Er_RNSoCQWQcDM-37">
          <mxGeometry relative="1" as="geometry" />
        </mxCell>
        <mxCell id="aHtEY9Er_RNSoCQWQcDM-40" value="yes" style="edgeLabel;html=1;align=center;verticalAlign=middle;resizable=0;points=[];" vertex="1" connectable="0" parent="aHtEY9Er_RNSoCQWQcDM-39">
          <mxGeometry x="-0.2859" y="1" relative="1" as="geometry">
            <mxPoint as="offset" />
          </mxGeometry>
        </mxCell>
        <mxCell id="aHtEY9Er_RNSoCQWQcDM-24" value="categorical values encoded?" style="strokeWidth=1;html=1;shape=mxgraph.flowchart.decision;whiteSpace=wrap;rounded=1;shadow=0;glass=0;" vertex="1" parent="WIyWlLk6GJQsqaUBKTNV-1">
          <mxGeometry x="10" y="365" width="180" height="90" as="geometry" />
        </mxCell>
        <mxCell id="aHtEY9Er_RNSoCQWQcDM-36" style="edgeStyle=orthogonalEdgeStyle;rounded=0;orthogonalLoop=1;jettySize=auto;html=1;exitX=0.5;exitY=1;exitDx=0;exitDy=0;" edge="1" parent="WIyWlLk6GJQsqaUBKTNV-1" source="aHtEY9Er_RNSoCQWQcDM-30" target="aHtEY9Er_RNSoCQWQcDM-17">
          <mxGeometry relative="1" as="geometry" />
        </mxCell>
        <mxCell id="aHtEY9Er_RNSoCQWQcDM-30" value="initialize dtc with the dataset" style="rounded=1;whiteSpace=wrap;html=1;fontSize=12;glass=0;strokeWidth=1;shadow=0;" vertex="1" parent="WIyWlLk6GJQsqaUBKTNV-1">
          <mxGeometry x="270" y="390" width="120" height="40" as="geometry" />
        </mxCell>
        <mxCell id="aHtEY9Er_RNSoCQWQcDM-31" value="dtc.initialize(dataset=&#39;covertype&#39;)" style="strokeWidth=2;html=1;shape=mxgraph.flowchart.annotation_2;align=left;labelPosition=right;pointerEvents=1;" vertex="1" parent="WIyWlLk6GJQsqaUBKTNV-1">
          <mxGeometry x="390" y="400" width="60" height="20" as="geometry" />
        </mxCell>
        <mxCell id="aHtEY9Er_RNSoCQWQcDM-51" style="edgeStyle=orthogonalEdgeStyle;rounded=0;orthogonalLoop=1;jettySize=auto;html=1;exitX=0.5;exitY=1;exitDx=0;exitDy=0;entryX=0.5;entryY=0;entryDx=0;entryDy=0;entryPerimeter=0;" edge="1" parent="WIyWlLk6GJQsqaUBKTNV-1" source="aHtEY9Er_RNSoCQWQcDM-37" target="aHtEY9Er_RNSoCQWQcDM-50">
          <mxGeometry relative="1" as="geometry" />
        </mxCell>
        <mxCell id="aHtEY9Er_RNSoCQWQcDM-37" value="initialize dtc with the dataset" style="rounded=1;whiteSpace=wrap;html=1;fontSize=12;glass=0;strokeWidth=1;shadow=0;" vertex="1" parent="WIyWlLk6GJQsqaUBKTNV-1">
          <mxGeometry x="40" y="520" width="120" height="40" as="geometry" />
        </mxCell>
        <mxCell id="aHtEY9Er_RNSoCQWQcDM-58" style="edgeStyle=orthogonalEdgeStyle;rounded=0;orthogonalLoop=1;jettySize=auto;html=1;exitX=0.5;exitY=1;exitDx=0;exitDy=0;" edge="1" parent="WIyWlLk6GJQsqaUBKTNV-1" source="aHtEY9Er_RNSoCQWQcDM-46" target="aHtEY9Er_RNSoCQWQcDM-54">
          <mxGeometry relative="1" as="geometry" />
        </mxCell>
        <mxCell id="aHtEY9Er_RNSoCQWQcDM-46" value="&lt;div&gt;estimate the Decision Tree Classifier&lt;br&gt;&lt;/div&gt;" style="rounded=1;whiteSpace=wrap;html=1;fontSize=12;glass=0;strokeWidth=1;shadow=0;" vertex="1" parent="WIyWlLk6GJQsqaUBKTNV-1">
          <mxGeometry x="40" y="630" width="120" height="40" as="geometry" />
        </mxCell>
        <mxCell id="aHtEY9Er_RNSoCQWQcDM-47" value="dtc.estimate()" style="strokeWidth=2;html=1;shape=mxgraph.flowchart.annotation_2;align=left;labelPosition=right;pointerEvents=1;" vertex="1" parent="WIyWlLk6GJQsqaUBKTNV-1">
          <mxGeometry x="160" y="640" width="60" height="20" as="geometry" />
        </mxCell>
        <mxCell id="aHtEY9Er_RNSoCQWQcDM-38" value="dtc.initialize(dataset=&#39;covertype&#39;, table_train = covertype_train, table_eval = covertype_eval)" style="strokeWidth=2;html=1;shape=mxgraph.flowchart.annotation_2;align=left;labelPosition=right;pointerEvents=1;" vertex="1" parent="WIyWlLk6GJQsqaUBKTNV-1">
          <mxGeometry x="160" y="530" width="60" height="20" as="geometry" />
        </mxCell>
        <mxCell id="aHtEY9Er_RNSoCQWQcDM-53" style="edgeStyle=orthogonalEdgeStyle;rounded=0;orthogonalLoop=1;jettySize=auto;html=1;exitX=0.5;exitY=1;exitDx=0;exitDy=0;exitPerimeter=0;" edge="1" parent="WIyWlLk6GJQsqaUBKTNV-1" source="aHtEY9Er_RNSoCQWQcDM-50" target="aHtEY9Er_RNSoCQWQcDM-46">
          <mxGeometry relative="1" as="geometry" />
        </mxCell>
        <mxCell id="aHtEY9Er_RNSoCQWQcDM-50" value="" style="strokeWidth=2;html=1;shape=mxgraph.flowchart.decision;whiteSpace=wrap;" vertex="1" parent="WIyWlLk6GJQsqaUBKTNV-1">
          <mxGeometry x="85" y="580" width="30" height="30" as="geometry" />
        </mxCell>
        <mxCell id="aHtEY9Er_RNSoCQWQcDM-71" style="edgeStyle=orthogonalEdgeStyle;rounded=0;orthogonalLoop=1;jettySize=auto;html=1;exitX=1;exitY=0.5;exitDx=0;exitDy=0;exitPerimeter=0;" edge="1" parent="WIyWlLk6GJQsqaUBKTNV-1" source="aHtEY9Er_RNSoCQWQcDM-54" target="aHtEY9Er_RNSoCQWQcDM-70">
          <mxGeometry relative="1" as="geometry" />
        </mxCell>
        <mxCell id="aHtEY9Er_RNSoCQWQcDM-72" value="yes" style="edgeLabel;html=1;align=center;verticalAlign=middle;resizable=0;points=[];" vertex="1" connectable="0" parent="aHtEY9Er_RNSoCQWQcDM-71">
          <mxGeometry x="-0.6533" relative="1" as="geometry">
            <mxPoint x="11" as="offset" />
          </mxGeometry>
        </mxCell>
        <mxCell id="aHtEY9Er_RNSoCQWQcDM-92" style="edgeStyle=orthogonalEdgeStyle;rounded=0;orthogonalLoop=1;jettySize=auto;html=1;exitX=0.5;exitY=1;exitDx=0;exitDy=0;exitPerimeter=0;entryX=0.5;entryY=0;entryDx=0;entryDy=0;entryPerimeter=0;" edge="1" parent="WIyWlLk6GJQsqaUBKTNV-1" source="aHtEY9Er_RNSoCQWQcDM-54" target="aHtEY9Er_RNSoCQWQcDM-91">
          <mxGeometry relative="1" as="geometry" />
        </mxCell>
        <mxCell id="aHtEY9Er_RNSoCQWQcDM-93" value="no" style="edgeLabel;html=1;align=center;verticalAlign=middle;resizable=0;points=[];" vertex="1" connectable="0" parent="aHtEY9Er_RNSoCQWQcDM-92">
          <mxGeometry x="0.187" y="-2" relative="1" as="geometry">
            <mxPoint as="offset" />
          </mxGeometry>
        </mxCell>
        <mxCell id="aHtEY9Er_RNSoCQWQcDM-54" value="predict table?" style="strokeWidth=1;html=1;shape=mxgraph.flowchart.decision;whiteSpace=wrap;rounded=1;shadow=0;glass=0;" vertex="1" parent="WIyWlLk6GJQsqaUBKTNV-1">
          <mxGeometry x="40" y="700" width="120" height="70" as="geometry" />
        </mxCell>
        <mxCell id="aHtEY9Er_RNSoCQWQcDM-81" style="edgeStyle=orthogonalEdgeStyle;rounded=0;orthogonalLoop=1;jettySize=auto;html=1;exitX=1;exitY=0.5;exitDx=0;exitDy=0;exitPerimeter=0;entryX=0;entryY=0.5;entryDx=0;entryDy=0;entryPerimeter=0;" edge="1" parent="WIyWlLk6GJQsqaUBKTNV-1" source="aHtEY9Er_RNSoCQWQcDM-55" target="aHtEY9Er_RNSoCQWQcDM-82">
          <mxGeometry relative="1" as="geometry">
            <mxPoint x="220" y="1155.1666666666667" as="targetPoint" />
          </mxGeometry>
        </mxCell>
        <mxCell id="aHtEY9Er_RNSoCQWQcDM-83" value="yes" style="edgeLabel;html=1;align=center;verticalAlign=middle;resizable=0;points=[];" vertex="1" connectable="0" parent="aHtEY9Er_RNSoCQWQcDM-81">
          <mxGeometry x="0.3262" y="-1" relative="1" as="geometry">
            <mxPoint x="-13" y="-1" as="offset" />
          </mxGeometry>
        </mxCell>
        <mxCell id="aHtEY9Er_RNSoCQWQcDM-112" style="edgeStyle=orthogonalEdgeStyle;rounded=0;orthogonalLoop=1;jettySize=auto;html=1;exitX=0.5;exitY=1;exitDx=0;exitDy=0;exitPerimeter=0;" edge="1" parent="WIyWlLk6GJQsqaUBKTNV-1" source="aHtEY9Er_RNSoCQWQcDM-55" target="aHtEY9Er_RNSoCQWQcDM-111">
          <mxGeometry relative="1" as="geometry" />
        </mxCell>
        <mxCell id="aHtEY9Er_RNSoCQWQcDM-113" value="no" style="edgeLabel;html=1;align=center;verticalAlign=middle;resizable=0;points=[];" vertex="1" connectable="0" parent="aHtEY9Er_RNSoCQWQcDM-112">
          <mxGeometry x="-0.7741" y="1" relative="1" as="geometry">
            <mxPoint x="-1" y="30" as="offset" />
          </mxGeometry>
        </mxCell>
        <mxCell id="aHtEY9Er_RNSoCQWQcDM-55" value="predict dataset?" style="strokeWidth=1;html=1;shape=mxgraph.flowchart.decision;whiteSpace=wrap;rounded=1;shadow=0;glass=0;" vertex="1" parent="WIyWlLk6GJQsqaUBKTNV-1">
          <mxGeometry x="40" y="1120" width="120" height="70" as="geometry" />
        </mxCell>
        <mxCell id="aHtEY9Er_RNSoCQWQcDM-61" style="edgeStyle=orthogonalEdgeStyle;rounded=0;orthogonalLoop=1;jettySize=auto;html=1;exitX=0.5;exitY=1;exitDx=0;exitDy=0;exitPerimeter=0;entryX=0.5;entryY=0;entryDx=0;entryDy=0;entryPerimeter=0;" edge="1" parent="WIyWlLk6GJQsqaUBKTNV-1" source="aHtEY9Er_RNSoCQWQcDM-56" target="aHtEY9Er_RNSoCQWQcDM-121">
          <mxGeometry relative="1" as="geometry" />
        </mxCell>
        <mxCell id="aHtEY9Er_RNSoCQWQcDM-65" value="no" style="edgeLabel;html=1;align=center;verticalAlign=middle;resizable=0;points=[];" vertex="1" connectable="0" parent="aHtEY9Er_RNSoCQWQcDM-61">
          <mxGeometry x="-0.2666" relative="1" as="geometry">
            <mxPoint y="-8" as="offset" />
          </mxGeometry>
        </mxCell>
        <mxCell id="aHtEY9Er_RNSoCQWQcDM-119" style="edgeStyle=orthogonalEdgeStyle;rounded=0;orthogonalLoop=1;jettySize=auto;html=1;exitX=1;exitY=0.5;exitDx=0;exitDy=0;exitPerimeter=0;" edge="1" parent="WIyWlLk6GJQsqaUBKTNV-1" source="aHtEY9Er_RNSoCQWQcDM-56" target="aHtEY9Er_RNSoCQWQcDM-117">
          <mxGeometry relative="1" as="geometry" />
        </mxCell>
        <mxCell id="aHtEY9Er_RNSoCQWQcDM-120" value="yes" style="edgeLabel;html=1;align=center;verticalAlign=middle;resizable=0;points=[];" vertex="1" connectable="0" parent="aHtEY9Er_RNSoCQWQcDM-119">
          <mxGeometry x="-0.3942" relative="1" as="geometry">
            <mxPoint as="offset" />
          </mxGeometry>
        </mxCell>
        <mxCell id="aHtEY9Er_RNSoCQWQcDM-56" value="save dtc?" style="strokeWidth=1;html=1;shape=mxgraph.flowchart.decision;whiteSpace=wrap;rounded=1;shadow=0;glass=0;" vertex="1" parent="WIyWlLk6GJQsqaUBKTNV-1">
          <mxGeometry x="40" y="1330" width="120" height="70" as="geometry" />
        </mxCell>
        <mxCell id="aHtEY9Er_RNSoCQWQcDM-125" style="edgeStyle=orthogonalEdgeStyle;rounded=0;orthogonalLoop=1;jettySize=auto;html=1;exitX=0.5;exitY=1;exitDx=0;exitDy=0;exitPerimeter=0;" edge="1" parent="WIyWlLk6GJQsqaUBKTNV-1" source="aHtEY9Er_RNSoCQWQcDM-57" target="aHtEY9Er_RNSoCQWQcDM-124">
          <mxGeometry relative="1" as="geometry" />
        </mxCell>
        <mxCell id="aHtEY9Er_RNSoCQWQcDM-131" value="yes" style="edgeLabel;html=1;align=center;verticalAlign=middle;resizable=0;points=[];" vertex="1" connectable="0" parent="aHtEY9Er_RNSoCQWQcDM-125">
          <mxGeometry x="-0.8019" y="-1" relative="1" as="geometry">
            <mxPoint x="1" y="5" as="offset" />
          </mxGeometry>
        </mxCell>
        <mxCell id="aHtEY9Er_RNSoCQWQcDM-128" style="edgeStyle=orthogonalEdgeStyle;rounded=0;orthogonalLoop=1;jettySize=auto;html=1;exitX=1;exitY=0.5;exitDx=0;exitDy=0;exitPerimeter=0;" edge="1" parent="WIyWlLk6GJQsqaUBKTNV-1" source="aHtEY9Er_RNSoCQWQcDM-57" target="aHtEY9Er_RNSoCQWQcDM-126">
          <mxGeometry relative="1" as="geometry" />
        </mxCell>
        <mxCell id="aHtEY9Er_RNSoCQWQcDM-130" value="yes" style="edgeLabel;html=1;align=center;verticalAlign=middle;resizable=0;points=[];" vertex="1" connectable="0" parent="aHtEY9Er_RNSoCQWQcDM-128">
          <mxGeometry x="0.3126" y="-2" relative="1" as="geometry">
            <mxPoint x="-13" y="-2" as="offset" />
          </mxGeometry>
        </mxCell>
        <mxCell id="aHtEY9Er_RNSoCQWQcDM-57" value="save model?" style="strokeWidth=1;html=1;shape=mxgraph.flowchart.decision;whiteSpace=wrap;rounded=1;shadow=0;glass=0;" vertex="1" parent="WIyWlLk6GJQsqaUBKTNV-1">
          <mxGeometry x="40" y="1520" width="120" height="70" as="geometry" />
        </mxCell>
        <mxCell id="aHtEY9Er_RNSoCQWQcDM-103" style="edgeStyle=orthogonalEdgeStyle;rounded=0;orthogonalLoop=1;jettySize=auto;html=1;exitX=0.5;exitY=1;exitDx=0;exitDy=0;entryX=0.5;entryY=0;entryDx=0;entryDy=0;entryPerimeter=0;" edge="1" parent="WIyWlLk6GJQsqaUBKTNV-1" source="aHtEY9Er_RNSoCQWQcDM-68" target="aHtEY9Er_RNSoCQWQcDM-95">
          <mxGeometry relative="1" as="geometry" />
        </mxCell>
        <mxCell id="aHtEY9Er_RNSoCQWQcDM-68" value="predict the evaluation table" style="rounded=1;whiteSpace=wrap;html=1;fontSize=12;glass=0;strokeWidth=1;shadow=0;" vertex="1" parent="WIyWlLk6GJQsqaUBKTNV-1">
          <mxGeometry x="210" y="810" width="120" height="40" as="geometry" />
        </mxCell>
        <mxCell id="aHtEY9Er_RNSoCQWQcDM-69" value="dtc.predict_table()" style="strokeWidth=2;html=1;shape=mxgraph.flowchart.annotation_2;align=left;labelPosition=right;pointerEvents=1;" vertex="1" parent="WIyWlLk6GJQsqaUBKTNV-1">
          <mxGeometry x="330" y="820" width="60" height="20" as="geometry" />
        </mxCell>
        <mxCell id="aHtEY9Er_RNSoCQWQcDM-73" style="edgeStyle=orthogonalEdgeStyle;rounded=0;orthogonalLoop=1;jettySize=auto;html=1;exitX=0.5;exitY=1;exitDx=0;exitDy=0;exitPerimeter=0;entryX=0.5;entryY=0;entryDx=0;entryDy=0;" edge="1" parent="WIyWlLk6GJQsqaUBKTNV-1" source="aHtEY9Er_RNSoCQWQcDM-70" target="aHtEY9Er_RNSoCQWQcDM-68">
          <mxGeometry relative="1" as="geometry" />
        </mxCell>
        <mxCell id="aHtEY9Er_RNSoCQWQcDM-75" value="no" style="edgeLabel;html=1;align=center;verticalAlign=middle;resizable=0;points=[];" vertex="1" connectable="0" parent="aHtEY9Er_RNSoCQWQcDM-73">
          <mxGeometry x="0.0889" y="-1" relative="1" as="geometry">
            <mxPoint as="offset" />
          </mxGeometry>
        </mxCell>
        <mxCell id="aHtEY9Er_RNSoCQWQcDM-74" style="edgeStyle=orthogonalEdgeStyle;rounded=0;orthogonalLoop=1;jettySize=auto;html=1;exitX=1;exitY=0.5;exitDx=0;exitDy=0;exitPerimeter=0;entryX=0;entryY=0.5;entryDx=0;entryDy=0;" edge="1" parent="WIyWlLk6GJQsqaUBKTNV-1" source="aHtEY9Er_RNSoCQWQcDM-70" target="aHtEY9Er_RNSoCQWQcDM-77">
          <mxGeometry relative="1" as="geometry">
            <mxPoint x="380" y="735.2068965517242" as="targetPoint" />
          </mxGeometry>
        </mxCell>
        <mxCell id="aHtEY9Er_RNSoCQWQcDM-76" value="yes" style="edgeLabel;html=1;align=center;verticalAlign=middle;resizable=0;points=[];" vertex="1" connectable="0" parent="aHtEY9Er_RNSoCQWQcDM-74">
          <mxGeometry x="0.3068" relative="1" as="geometry">
            <mxPoint as="offset" />
          </mxGeometry>
        </mxCell>
        <mxCell id="aHtEY9Er_RNSoCQWQcDM-70" value="stored procedure?" style="strokeWidth=1;html=1;shape=mxgraph.flowchart.decision;whiteSpace=wrap;rounded=1;shadow=0;glass=0;" vertex="1" parent="WIyWlLk6GJQsqaUBKTNV-1">
          <mxGeometry x="210" y="700" width="120" height="70" as="geometry" />
        </mxCell>
        <mxCell id="aHtEY9Er_RNSoCQWQcDM-77" value="predict the evaluation table" style="rounded=1;whiteSpace=wrap;html=1;fontSize=12;glass=0;strokeWidth=1;shadow=0;" vertex="1" parent="WIyWlLk6GJQsqaUBKTNV-1">
          <mxGeometry x="390" y="715" width="120" height="40" as="geometry" />
        </mxCell>
        <mxCell id="aHtEY9Er_RNSoCQWQcDM-78" value="dtc.predict_table(stored_procedure=True)" style="strokeWidth=2;html=1;shape=mxgraph.flowchart.annotation_2;align=left;labelPosition=right;pointerEvents=1;" vertex="1" parent="WIyWlLk6GJQsqaUBKTNV-1">
          <mxGeometry x="510" y="725" width="60" height="20" as="geometry" />
        </mxCell>
        <mxCell id="aHtEY9Er_RNSoCQWQcDM-79" value="predict given dataset" style="rounded=1;whiteSpace=wrap;html=1;fontSize=12;glass=0;strokeWidth=1;shadow=0;" vertex="1" parent="WIyWlLk6GJQsqaUBKTNV-1">
          <mxGeometry x="390" y="1135" width="120" height="40" as="geometry" />
        </mxCell>
        <mxCell id="aHtEY9Er_RNSoCQWQcDM-80" value="dtc.predict(X)" style="strokeWidth=2;html=1;shape=mxgraph.flowchart.annotation_2;align=left;labelPosition=right;pointerEvents=1;" vertex="1" parent="WIyWlLk6GJQsqaUBKTNV-1">
          <mxGeometry x="510" y="1145" width="60" height="20" as="geometry" />
        </mxCell>
        <mxCell id="aHtEY9Er_RNSoCQWQcDM-84" style="edgeStyle=orthogonalEdgeStyle;rounded=0;orthogonalLoop=1;jettySize=auto;html=1;exitX=1;exitY=0.5;exitDx=0;exitDy=0;exitPerimeter=0;" edge="1" parent="WIyWlLk6GJQsqaUBKTNV-1" source="aHtEY9Er_RNSoCQWQcDM-82" target="aHtEY9Er_RNSoCQWQcDM-79">
          <mxGeometry relative="1" as="geometry" />
        </mxCell>
        <mxCell id="aHtEY9Er_RNSoCQWQcDM-89" value="yes" style="edgeLabel;html=1;align=center;verticalAlign=middle;resizable=0;points=[];" vertex="1" connectable="0" parent="aHtEY9Er_RNSoCQWQcDM-84">
          <mxGeometry x="-0.7019" relative="1" as="geometry">
            <mxPoint x="11" as="offset" />
          </mxGeometry>
        </mxCell>
        <mxCell id="aHtEY9Er_RNSoCQWQcDM-85" style="edgeStyle=orthogonalEdgeStyle;rounded=0;orthogonalLoop=1;jettySize=auto;html=1;exitX=0.5;exitY=1;exitDx=0;exitDy=0;exitPerimeter=0;entryX=0.5;entryY=0;entryDx=0;entryDy=0;" edge="1" parent="WIyWlLk6GJQsqaUBKTNV-1" source="aHtEY9Er_RNSoCQWQcDM-82" target="aHtEY9Er_RNSoCQWQcDM-86">
          <mxGeometry relative="1" as="geometry">
            <mxPoint x="280" y="1240" as="targetPoint" />
          </mxGeometry>
        </mxCell>
        <mxCell id="aHtEY9Er_RNSoCQWQcDM-88" value="no" style="edgeLabel;html=1;align=center;verticalAlign=middle;resizable=0;points=[];" vertex="1" connectable="0" parent="aHtEY9Er_RNSoCQWQcDM-85">
          <mxGeometry x="0.0322" y="-4" relative="1" as="geometry">
            <mxPoint as="offset" />
          </mxGeometry>
        </mxCell>
        <mxCell id="aHtEY9Er_RNSoCQWQcDM-82" value="dataset given?" style="strokeWidth=1;html=1;shape=mxgraph.flowchart.decision;whiteSpace=wrap;rounded=1;shadow=0;glass=0;" vertex="1" parent="WIyWlLk6GJQsqaUBKTNV-1">
          <mxGeometry x="210" y="1120" width="120" height="70" as="geometry" />
        </mxCell>
        <mxCell id="aHtEY9Er_RNSoCQWQcDM-114" style="edgeStyle=orthogonalEdgeStyle;rounded=0;orthogonalLoop=1;jettySize=auto;html=1;exitX=0;exitY=0.5;exitDx=0;exitDy=0;entryX=1;entryY=0.5;entryDx=0;entryDy=0;entryPerimeter=0;" edge="1" parent="WIyWlLk6GJQsqaUBKTNV-1" source="aHtEY9Er_RNSoCQWQcDM-86" target="aHtEY9Er_RNSoCQWQcDM-111">
          <mxGeometry relative="1" as="geometry" />
        </mxCell>
        <mxCell id="aHtEY9Er_RNSoCQWQcDM-86" value="predict data fetched from eval table" style="rounded=1;whiteSpace=wrap;html=1;fontSize=12;glass=0;strokeWidth=1;shadow=0;" vertex="1" parent="WIyWlLk6GJQsqaUBKTNV-1">
          <mxGeometry x="210" y="1260" width="120" height="40" as="geometry" />
        </mxCell>
        <mxCell id="aHtEY9Er_RNSoCQWQcDM-87" value="dtc.predict()" style="strokeWidth=2;html=1;shape=mxgraph.flowchart.annotation_2;align=left;labelPosition=right;pointerEvents=1;" vertex="1" parent="WIyWlLk6GJQsqaUBKTNV-1">
          <mxGeometry x="330" y="1270" width="60" height="20" as="geometry" />
        </mxCell>
        <mxCell id="aHtEY9Er_RNSoCQWQcDM-97" style="edgeStyle=orthogonalEdgeStyle;rounded=0;orthogonalLoop=1;jettySize=auto;html=1;exitX=0;exitY=0.5;exitDx=0;exitDy=0;exitPerimeter=0;entryX=1;entryY=0.5;entryDx=0;entryDy=0;entryPerimeter=0;" edge="1" parent="WIyWlLk6GJQsqaUBKTNV-1" source="aHtEY9Er_RNSoCQWQcDM-90" target="aHtEY9Er_RNSoCQWQcDM-91">
          <mxGeometry relative="1" as="geometry" />
        </mxCell>
        <mxCell id="aHtEY9Er_RNSoCQWQcDM-98" value="no" style="edgeLabel;html=1;align=center;verticalAlign=middle;resizable=0;points=[];" vertex="1" connectable="0" parent="aHtEY9Er_RNSoCQWQcDM-97">
          <mxGeometry x="0.2632" relative="1" as="geometry">
            <mxPoint as="offset" />
          </mxGeometry>
        </mxCell>
        <mxCell id="aHtEY9Er_RNSoCQWQcDM-108" style="edgeStyle=orthogonalEdgeStyle;rounded=0;orthogonalLoop=1;jettySize=auto;html=1;exitX=1;exitY=0.5;exitDx=0;exitDy=0;exitPerimeter=0;entryX=0;entryY=0.5;entryDx=0;entryDy=0;" edge="1" parent="WIyWlLk6GJQsqaUBKTNV-1" source="aHtEY9Er_RNSoCQWQcDM-90" target="aHtEY9Er_RNSoCQWQcDM-106">
          <mxGeometry relative="1" as="geometry" />
        </mxCell>
        <mxCell id="aHtEY9Er_RNSoCQWQcDM-109" value="yes" style="edgeLabel;html=1;align=center;verticalAlign=middle;resizable=0;points=[];" vertex="1" connectable="0" parent="aHtEY9Er_RNSoCQWQcDM-108">
          <mxGeometry x="-0.6426" y="1" relative="1" as="geometry">
            <mxPoint x="9" y="1" as="offset" />
          </mxGeometry>
        </mxCell>
        <mxCell id="aHtEY9Er_RNSoCQWQcDM-90" value="measure accuracy?" style="strokeWidth=1;html=1;shape=mxgraph.flowchart.decision;whiteSpace=wrap;rounded=1;shadow=0;glass=0;" vertex="1" parent="WIyWlLk6GJQsqaUBKTNV-1">
          <mxGeometry x="210" y="960" width="120" height="70" as="geometry" />
        </mxCell>
        <mxCell id="aHtEY9Er_RNSoCQWQcDM-100" style="edgeStyle=orthogonalEdgeStyle;rounded=0;orthogonalLoop=1;jettySize=auto;html=1;exitX=0.5;exitY=1;exitDx=0;exitDy=0;exitPerimeter=0;entryX=0.5;entryY=0;entryDx=0;entryDy=0;entryPerimeter=0;" edge="1" parent="WIyWlLk6GJQsqaUBKTNV-1" source="aHtEY9Er_RNSoCQWQcDM-91" target="aHtEY9Er_RNSoCQWQcDM-99">
          <mxGeometry relative="1" as="geometry" />
        </mxCell>
        <mxCell id="aHtEY9Er_RNSoCQWQcDM-91" value="" style="strokeWidth=2;html=1;shape=mxgraph.flowchart.decision;whiteSpace=wrap;" vertex="1" parent="WIyWlLk6GJQsqaUBKTNV-1">
          <mxGeometry x="85" y="980" width="30" height="30" as="geometry" />
        </mxCell>
        <mxCell id="aHtEY9Er_RNSoCQWQcDM-105" style="edgeStyle=orthogonalEdgeStyle;rounded=0;orthogonalLoop=1;jettySize=auto;html=1;exitX=0.5;exitY=1;exitDx=0;exitDy=0;exitPerimeter=0;entryX=0.5;entryY=0;entryDx=0;entryDy=0;entryPerimeter=0;" edge="1" parent="WIyWlLk6GJQsqaUBKTNV-1" source="aHtEY9Er_RNSoCQWQcDM-95" target="aHtEY9Er_RNSoCQWQcDM-90">
          <mxGeometry relative="1" as="geometry" />
        </mxCell>
        <mxCell id="aHtEY9Er_RNSoCQWQcDM-95" value="" style="strokeWidth=2;html=1;shape=mxgraph.flowchart.decision;whiteSpace=wrap;" vertex="1" parent="WIyWlLk6GJQsqaUBKTNV-1">
          <mxGeometry x="255" y="880" width="30" height="30" as="geometry" />
        </mxCell>
        <mxCell id="aHtEY9Er_RNSoCQWQcDM-101" style="edgeStyle=orthogonalEdgeStyle;rounded=0;orthogonalLoop=1;jettySize=auto;html=1;exitX=0.5;exitY=1;exitDx=0;exitDy=0;exitPerimeter=0;entryX=0.5;entryY=0;entryDx=0;entryDy=0;entryPerimeter=0;" edge="1" parent="WIyWlLk6GJQsqaUBKTNV-1" source="aHtEY9Er_RNSoCQWQcDM-99" target="aHtEY9Er_RNSoCQWQcDM-55">
          <mxGeometry relative="1" as="geometry" />
        </mxCell>
        <mxCell id="aHtEY9Er_RNSoCQWQcDM-99" value="" style="strokeWidth=2;html=1;shape=mxgraph.flowchart.decision;whiteSpace=wrap;" vertex="1" parent="WIyWlLk6GJQsqaUBKTNV-1">
          <mxGeometry x="85" y="1060" width="30" height="30" as="geometry" />
        </mxCell>
        <mxCell id="aHtEY9Er_RNSoCQWQcDM-110" style="edgeStyle=orthogonalEdgeStyle;rounded=0;orthogonalLoop=1;jettySize=auto;html=1;exitX=0.5;exitY=1;exitDx=0;exitDy=0;entryX=1;entryY=0.5;entryDx=0;entryDy=0;entryPerimeter=0;" edge="1" parent="WIyWlLk6GJQsqaUBKTNV-1" source="aHtEY9Er_RNSoCQWQcDM-106" target="aHtEY9Er_RNSoCQWQcDM-99">
          <mxGeometry relative="1" as="geometry" />
        </mxCell>
        <mxCell id="aHtEY9Er_RNSoCQWQcDM-106" value="measure accuracy with predicted table" style="rounded=1;whiteSpace=wrap;html=1;fontSize=12;glass=0;strokeWidth=1;shadow=0;" vertex="1" parent="WIyWlLk6GJQsqaUBKTNV-1">
          <mxGeometry x="390" y="975" width="120" height="40" as="geometry" />
        </mxCell>
        <mxCell id="aHtEY9Er_RNSoCQWQcDM-107" value="dtc.score()" style="strokeWidth=2;html=1;shape=mxgraph.flowchart.annotation_2;align=left;labelPosition=right;pointerEvents=1;" vertex="1" parent="WIyWlLk6GJQsqaUBKTNV-1">
          <mxGeometry x="510" y="985" width="60" height="20" as="geometry" />
        </mxCell>
        <mxCell id="aHtEY9Er_RNSoCQWQcDM-116" style="edgeStyle=orthogonalEdgeStyle;rounded=0;orthogonalLoop=1;jettySize=auto;html=1;exitX=0.5;exitY=1;exitDx=0;exitDy=0;exitPerimeter=0;" edge="1" parent="WIyWlLk6GJQsqaUBKTNV-1" source="aHtEY9Er_RNSoCQWQcDM-111" target="aHtEY9Er_RNSoCQWQcDM-56">
          <mxGeometry relative="1" as="geometry" />
        </mxCell>
        <mxCell id="aHtEY9Er_RNSoCQWQcDM-111" value="" style="strokeWidth=2;html=1;shape=mxgraph.flowchart.decision;whiteSpace=wrap;" vertex="1" parent="WIyWlLk6GJQsqaUBKTNV-1">
          <mxGeometry x="85" y="1265" width="30" height="30" as="geometry" />
        </mxCell>
        <mxCell id="aHtEY9Er_RNSoCQWQcDM-122" style="edgeStyle=orthogonalEdgeStyle;rounded=0;orthogonalLoop=1;jettySize=auto;html=1;exitX=0.5;exitY=1;exitDx=0;exitDy=0;entryX=1;entryY=0.5;entryDx=0;entryDy=0;entryPerimeter=0;" edge="1" parent="WIyWlLk6GJQsqaUBKTNV-1" source="aHtEY9Er_RNSoCQWQcDM-117" target="aHtEY9Er_RNSoCQWQcDM-121">
          <mxGeometry relative="1" as="geometry" />
        </mxCell>
        <mxCell id="aHtEY9Er_RNSoCQWQcDM-117" value="save dtc" style="rounded=1;whiteSpace=wrap;html=1;fontSize=12;glass=0;strokeWidth=1;shadow=0;" vertex="1" parent="WIyWlLk6GJQsqaUBKTNV-1">
          <mxGeometry x="210" y="1345" width="120" height="40" as="geometry" />
        </mxCell>
        <mxCell id="aHtEY9Er_RNSoCQWQcDM-118" value="dtc.save_dtc_tree(&quot;C:/Users/JonDoe/dtc.pk1&quot;)" style="strokeWidth=2;html=1;shape=mxgraph.flowchart.annotation_2;align=left;labelPosition=right;pointerEvents=1;" vertex="1" parent="WIyWlLk6GJQsqaUBKTNV-1">
          <mxGeometry x="330" y="1355" width="60" height="20" as="geometry" />
        </mxCell>
        <mxCell id="aHtEY9Er_RNSoCQWQcDM-123" style="edgeStyle=orthogonalEdgeStyle;rounded=0;orthogonalLoop=1;jettySize=auto;html=1;exitX=0.5;exitY=1;exitDx=0;exitDy=0;exitPerimeter=0;entryX=0.5;entryY=0;entryDx=0;entryDy=0;entryPerimeter=0;" edge="1" parent="WIyWlLk6GJQsqaUBKTNV-1" source="aHtEY9Er_RNSoCQWQcDM-121" target="aHtEY9Er_RNSoCQWQcDM-57">
          <mxGeometry relative="1" as="geometry" />
        </mxCell>
        <mxCell id="aHtEY9Er_RNSoCQWQcDM-121" value="" style="strokeWidth=2;html=1;shape=mxgraph.flowchart.decision;whiteSpace=wrap;" vertex="1" parent="WIyWlLk6GJQsqaUBKTNV-1">
          <mxGeometry x="85" y="1460" width="30" height="30" as="geometry" />
        </mxCell>
        <mxCell id="aHtEY9Er_RNSoCQWQcDM-124" value="End" style="strokeWidth=2;html=1;shape=mxgraph.flowchart.start_2;whiteSpace=wrap;" vertex="1" parent="WIyWlLk6GJQsqaUBKTNV-1">
          <mxGeometry x="85" y="1620" width="30" height="30" as="geometry" />
        </mxCell>
        <mxCell id="aHtEY9Er_RNSoCQWQcDM-129" style="edgeStyle=orthogonalEdgeStyle;rounded=0;orthogonalLoop=1;jettySize=auto;html=1;exitX=0.5;exitY=1;exitDx=0;exitDy=0;entryX=1;entryY=0.5;entryDx=0;entryDy=0;entryPerimeter=0;" edge="1" parent="WIyWlLk6GJQsqaUBKTNV-1" source="aHtEY9Er_RNSoCQWQcDM-126" target="aHtEY9Er_RNSoCQWQcDM-124">
          <mxGeometry relative="1" as="geometry" />
        </mxCell>
        <mxCell id="aHtEY9Er_RNSoCQWQcDM-126" value="save model" style="rounded=1;whiteSpace=wrap;html=1;fontSize=12;glass=0;strokeWidth=1;shadow=0;" vertex="1" parent="WIyWlLk6GJQsqaUBKTNV-1">
          <mxGeometry x="210" y="1535" width="120" height="40" as="geometry" />
        </mxCell>
        <mxCell id="aHtEY9Er_RNSoCQWQcDM-127" value="dtc.create_model(file_output=&quot;C:/Users/JonDoe/DTC_model.txt&quot;)" style="strokeWidth=2;html=1;shape=mxgraph.flowchart.annotation_2;align=left;labelPosition=right;pointerEvents=1;" vertex="1" parent="WIyWlLk6GJQsqaUBKTNV-1">
          <mxGeometry x="330" y="1545" width="60" height="20" as="geometry" />
        </mxCell>
      </root>
    </mxGraphModel>
  </diagram>
</mxfile>
